<mxfile host="app.diagrams.net" agent="Mozilla/5.0 (Windows NT 10.0; Win64; x64) AppleWebKit/537.36 (KHTML, like Gecko) Chrome/135.0.0.0 Safari/537.36" version="26.2.13">
  <diagram name="第 1 页" id="5hclALBQlh2AVa7bqb6c">
    <mxGraphModel dx="778" dy="463" grid="1" gridSize="10" guides="1" tooltips="1" connect="1" arrows="1" fold="1" page="1" pageScale="1" pageWidth="827" pageHeight="1169" math="0" shadow="0">
      <root>
        <mxCell id="0" />
        <mxCell id="1" parent="0" />
        <mxCell id="KOFm8QYngNt6rKNMLj1--1" value="Server" style="shape=umlLifeline;perimeter=lifelinePerimeter;whiteSpace=wrap;container=1;dropTarget=0;collapsible=0;recursiveResize=0;outlineConnect=0;portConstraint=eastwest;newEdgeStyle={&quot;edgeStyle&quot;:&quot;elbowEdgeStyle&quot;,&quot;elbow&quot;:&quot;vertical&quot;,&quot;curved&quot;:0,&quot;rounded&quot;:0};size=65;" vertex="1" parent="1">
          <mxGeometry x="290" y="50" width="150" height="550" as="geometry" />
        </mxCell>
        <mxCell id="KOFm8QYngNt6rKNMLj1--2" value="System" style="shape=umlLifeline;perimeter=lifelinePerimeter;whiteSpace=wrap;container=1;dropTarget=0;collapsible=0;recursiveResize=0;outlineConnect=0;portConstraint=eastwest;newEdgeStyle={&quot;edgeStyle&quot;:&quot;elbowEdgeStyle&quot;,&quot;elbow&quot;:&quot;vertical&quot;,&quot;curved&quot;:0,&quot;rounded&quot;:0};size=65;" vertex="1" parent="1">
          <mxGeometry x="490" y="50" width="150" height="550" as="geometry" />
        </mxCell>
        <mxCell id="KOFm8QYngNt6rKNMLj1--3" value="" style="points=[];perimeter=orthogonalPerimeter;outlineConnect=0;targetShapes=umlLifeline;portConstraint=eastwest;newEdgeStyle={&quot;edgeStyle&quot;:&quot;elbowEdgeStyle&quot;,&quot;elbow&quot;:&quot;vertical&quot;,&quot;curved&quot;:0,&quot;rounded&quot;:0}" vertex="1" parent="KOFm8QYngNt6rKNMLj1--2">
          <mxGeometry x="70" y="106" width="10" height="375" as="geometry" />
        </mxCell>
        <mxCell id="KOFm8QYngNt6rKNMLj1--4" value="loop" style="shape=umlFrame;pointerEvents=0;dropTarget=0;strokeColor=#B3B3B3;height=20;width=40" vertex="1" parent="1">
          <mxGeometry x="220" y="177" width="440" height="179" as="geometry" />
        </mxCell>
        <mxCell id="KOFm8QYngNt6rKNMLj1--5" value="[N辆车(N≤M)]" style="text;strokeColor=none;fillColor=none;align=center;verticalAlign=middle;whiteSpace=wrap;" vertex="1" parent="KOFm8QYngNt6rKNMLj1--4">
          <mxGeometry x="103.52941176470588" width="336.47058823529414" height="20" as="geometry" />
        </mxCell>
        <mxCell id="KOFm8QYngNt6rKNMLj1--6" value="M个空位信号" style="verticalAlign=bottom;edgeStyle=elbowEdgeStyle;elbow=vertical;curved=0;rounded=0;endArrow=block;" edge="1" parent="1" source="KOFm8QYngNt6rKNMLj1--1" target="KOFm8QYngNt6rKNMLj1--3">
          <mxGeometry relative="1" as="geometry">
            <Array as="points">
              <mxPoint x="472" y="157" />
            </Array>
          </mxGeometry>
        </mxCell>
        <mxCell id="KOFm8QYngNt6rKNMLj1--7" value="计算组合时长" style="curved=1;endArrow=block;rounded=0;" edge="1" parent="1" source="KOFm8QYngNt6rKNMLj1--3" target="KOFm8QYngNt6rKNMLj1--3">
          <mxGeometry relative="1" as="geometry">
            <Array as="points">
              <mxPoint x="625" y="276" />
              <mxPoint x="625" y="306" />
            </Array>
          </mxGeometry>
        </mxCell>
        <mxCell id="KOFm8QYngNt6rKNMLj1--8" value="选择最短时长组合" style="curved=1;endArrow=block;rounded=0;" edge="1" parent="1" source="KOFm8QYngNt6rKNMLj1--3" target="KOFm8QYngNt6rKNMLj1--3">
          <mxGeometry relative="1" as="geometry">
            <Array as="points">
              <mxPoint x="625" y="398" />
              <mxPoint x="625" y="428" />
            </Array>
          </mxGeometry>
        </mxCell>
        <mxCell id="KOFm8QYngNt6rKNMLj1--9" value="分配方案" style="verticalAlign=bottom;edgeStyle=elbowEdgeStyle;elbow=vertical;curved=0;rounded=0;endArrow=block;" edge="1" parent="1" source="KOFm8QYngNt6rKNMLj1--3" target="KOFm8QYngNt6rKNMLj1--1">
          <mxGeometry relative="1" as="geometry">
            <Array as="points">
              <mxPoint x="475" y="480" />
            </Array>
          </mxGeometry>
        </mxCell>
        <mxCell id="KOFm8QYngNt6rKNMLj1--10" value="队列更新确认" style="verticalAlign=bottom;edgeStyle=elbowEdgeStyle;elbow=vertical;curved=0;rounded=0;dashed=1;dashPattern=2 3;endArrow=block;" edge="1" parent="1" source="KOFm8QYngNt6rKNMLj1--3" target="KOFm8QYngNt6rKNMLj1--1">
          <mxGeometry relative="1" as="geometry">
            <Array as="points">
              <mxPoint x="475" y="532" />
            </Array>
          </mxGeometry>
        </mxCell>
      </root>
    </mxGraphModel>
  </diagram>
</mxfile>
